# xmcd
#
# Track frame offsets: 
#        150
#        20996
#        46944
#        61474
#        99679
#        119326
#        148283
#        174521
#        189098
#        197202
#        220854
#        243354
#        271857
#        289725
#        313604
#
# Disc length: 4666 seconds
#
# Revision: 0
# Processed by: cddbd v1.5.2PL0 Copyright (c) Steve Scherf et al.
# Submitted via: ExactAudioCopy v0.99pb5
#
DISCID=e512380f
DTITLE=Kenny Wayne Shepherd - 10 Days Out (Blues From the Backroads)
DYEAR=2007
DGENRE=Blues
TTITLE0=Prision Blues (with Cootie Stark and Neal "Big Daddy" Pattman)
TTITLE1=Potato Patch (with Jerry "Boogie" McCain)
TTITLE2=Honky Tonk (with Buddy Flett) 
TTITLE3=The Thrill is Gone (with B.B. King)
TTITLE4=Tina Marie (with Bryan Lee)
TTITLE5=Born in Louisiana (with Clarence "Gatemouth" Brown)
TTITLE6=Chapel Hill Boogie (with John Dee Holeman)
TTITLE7=Tears Come Rollin' Down (with Henry Townsend)
TTITLE8=Knoxville Rag (with Etta Baker)
TTITLE9=Big Daddy Boogie (with Neal "Big Daddy" Pattman)
TTITLE10=U-Haul (with Cootie Stark)
TTITLE11=Red Rooster (with Henry Gray and the Howlin' Wolf Band)
TTITLE12=Sittin' on Top of the World (with Hubert Sumlin and the Howli
TTITLE12=n' Wolf Band)
TTITLE13=Spoonful (with George "Wild Child" Butler and the Howlin' Wol
TTITLE13=f Band)
TTITLE14=Grindin' Man (with Pinetop Perkins and the Muddy Waters Band)
EXTD=
EXTT0=
EXTT1=
EXTT2=
EXTT3=
EXTT4=
EXTT5=
EXTT6=
EXTT7=
EXTT8=
EXTT9=
EXTT10=
EXTT11=
EXTT12=
EXTT13=
EXTT14=
PLAYORDER=
